<svg xmlns="http://www.w3.org/2000/svg" xmlns:xlink="http://www.w3.org/1999/xlink" width="300" zoomAndPan="magnify" viewBox="0 0 224.87999 74.999997" height="100" preserveAspectRatio="xMidYMid meet" version="1.0"><defs><g/><clipPath id="a99105c113"><path d="M 0 2.460938 L 62.214844 2.460938 L 62.214844 72.175781 L 0 72.175781 Z M 0 2.460938 " clip-rule="nonzero"/></clipPath></defs><g fill="#8c52ff" fill-opacity="1"><g transform="translate(70.439503, 34.028419)"><g><path d="M 9.90625 0 L 20.15625 0 L 30.089844 -20.496094 L 20.726562 -20.496094 L 15.058594 -7.429688 L 15.003906 -7.429688 L 9.335938 -20.496094 L 0 -20.496094 Z M 9.90625 0 "/></g></g></g><g fill="#8c52ff" fill-opacity="1"><g transform="translate(99.672284, 34.028419)"><g><path d="M 1.421875 0 L 10.476562 0 L 10.476562 -20.496094 L 1.421875 -20.496094 Z M 1.421875 0 "/></g></g></g><g fill="#8c52ff" fill-opacity="1"><g transform="translate(110.716319, 34.028419)"><g><path d="M 7.6875 0 L 16.796875 0 L 16.796875 -14.234375 L 24.199219 -14.234375 L 24.199219 -20.496094 L 0.285156 -20.496094 L 0.285156 -14.234375 L 7.6875 -14.234375 Z M 7.6875 0 "/></g></g></g><g fill="#8c52ff" fill-opacity="1"><g transform="translate(134.341618, 34.028419)"><g><path d="M 16.226562 0.710938 C 25.507812 0.710938 31.601562 -3.617188 31.601562 -10.25 C 31.601562 -16.882812 25.507812 -21.210938 16.226562 -21.210938 C 6.945312 -21.210938 0.855469 -16.882812 0.855469 -10.25 C 0.855469 -3.617188 6.945312 0.710938 16.226562 0.710938 Z M 16.226562 -5.550781 C 12.441406 -5.550781 9.964844 -7.402344 9.964844 -10.25 C 9.964844 -13.097656 12.441406 -14.945312 16.226562 -14.945312 C 20.015625 -14.945312 22.492188 -13.097656 22.492188 -10.25 C 22.492188 -7.402344 20.015625 -5.550781 16.226562 -5.550781 Z M 16.226562 -5.550781 "/></g></g></g><g fill="#8c52ff" fill-opacity="1"><g transform="translate(165.936938, 34.028419)"><g><path d="M 1.140625 0 L 23.914062 0 L 23.914062 -5.695312 L 11.359375 -5.695312 L 23.628906 -14.007812 L 23.773438 -20.496094 L 1.566406 -20.496094 L 1.421875 -14.804688 L 13.378906 -14.804688 L 1.140625 -6.347656 Z M 1.140625 0 "/></g></g></g><g fill="#000000" fill-opacity="1"><g transform="translate(70.439503, 59.045139)"><g><path d="M 13.609375 0.570312 C 21.75 0.570312 26.902344 -2.449219 26.875 -6.832031 C 26.875 -10.734375 23.742188 -12.667969 16.457031 -13.324219 L 13.097656 -13.609375 C 10.675781 -13.808594 9.621094 -14.121094 9.652344 -14.605469 C 9.679688 -15.375 11.617188 -15.773438 14.320312 -15.800781 C 17.253906 -15.828125 20.695312 -15.144531 23.257812 -13.921875 L 25.367188 -19.132812 C 22.492188 -20.382812 18.390625 -21.09375 14.234375 -21.09375 C 6.207031 -21.09375 0.855469 -18.5625 0.824219 -13.949219 C 0.824219 -10.136719 3.84375 -8.226562 10.875 -7.574219 L 14.148438 -7.257812 C 16.882812 -7.03125 18.050781 -6.660156 18.050781 -6.0625 C 18.050781 -5.324219 16.539062 -4.980469 14.09375 -4.980469 C 10.476562 -4.980469 6.0625 -6.035156 3.21875 -7.488281 L 0.570312 -2.050781 C 3.671875 -0.484375 9.054688 0.570312 13.609375 0.570312 Z M 13.609375 0.570312 "/></g></g></g><g fill="#000000" fill-opacity="1"><g transform="translate(97.025099, 59.045139)"><g><path d="M 7.6875 0 L 16.796875 0 L 16.796875 -14.234375 L 24.199219 -14.234375 L 24.199219 -20.496094 L 0.285156 -20.496094 L 0.285156 -14.234375 L 7.6875 -14.234375 Z M 7.6875 0 "/></g></g></g><g fill="#000000" fill-opacity="1"><g transform="translate(120.650395, 59.045139)"><g><path d="M 14.945312 0.425781 C 23.828125 0.425781 28.753906 -3.074219 28.753906 -9.394531 L 28.753906 -20.496094 L 19.644531 -20.496094 L 19.644531 -9.964844 C 19.644531 -7.289062 17.964844 -5.976562 14.945312 -5.976562 C 11.929688 -5.976562 10.25 -7.289062 10.25 -9.964844 L 10.25 -20.496094 L 1.140625 -20.496094 L 1.140625 -9.394531 C 1.140625 -3.074219 6.0625 0.425781 14.945312 0.425781 Z M 14.945312 0.425781 "/></g></g></g><g fill="#000000" fill-opacity="1"><g transform="translate(149.683926, 59.045139)"><g><path d="M 1.421875 0 L 16.769531 0 C 24.824219 0 29.324219 -3.671875 29.324219 -10.25 C 29.324219 -16.824219 24.824219 -20.496094 16.769531 -20.496094 L 1.421875 -20.496094 Z M 10.25 -5.976562 L 10.25 -14.519531 L 15.34375 -14.519531 C 18.648438 -14.519531 20.496094 -12.980469 20.496094 -10.25 C 20.496094 -7.515625 18.648438 -5.976562 15.34375 -5.976562 Z M 10.25 -5.976562 "/></g></g></g><g fill="#000000" fill-opacity="1"><g transform="translate(179.002097, 59.045139)"><g><path d="M 1.421875 0 L 10.476562 0 L 10.476562 -20.496094 L 1.421875 -20.496094 Z M 1.421875 0 "/></g></g></g><g fill="#000000" fill-opacity="1"><g transform="translate(190.04613, 59.045139)"><g><path d="M 16.226562 0.710938 C 25.507812 0.710938 31.601562 -3.617188 31.601562 -10.25 C 31.601562 -16.882812 25.507812 -21.210938 16.226562 -21.210938 C 6.945312 -21.210938 0.855469 -16.882812 0.855469 -10.25 C 0.855469 -3.617188 6.945312 0.710938 16.226562 0.710938 Z M 16.226562 -5.550781 C 12.441406 -5.550781 9.964844 -7.402344 9.964844 -10.25 C 9.964844 -13.097656 12.441406 -14.945312 16.226562 -14.945312 C 20.015625 -14.945312 22.492188 -13.097656 22.492188 -10.25 C 22.492188 -7.402344 20.015625 -5.550781 16.226562 -5.550781 Z M 16.226562 -5.550781 "/></g></g></g><g clip-path="url(#a99105c113)"><path fill="#8c52ff" d="M 53.070312 41.15625 L 56.34375 39.261719 C 56.691406 39.058594 56.988281 38.792969 57.207031 38.429688 L 57.191406 38.445312 C 57.394531 38.101562 57.472656 37.710938 57.472656 37.304688 C 57.472656 36.910156 57.394531 36.519531 57.191406 36.175781 C 56.988281 35.832031 56.691406 35.546875 56.34375 35.359375 L 32.234375 21.433594 C 32.203125 21.417969 32.171875 21.386719 32.140625 21.371094 L 8.128906 7.523438 C 7.78125 7.320312 7.390625 7.210938 7 7.210938 C 6.59375 7.210938 6.214844 7.320312 5.871094 7.523438 C 5.527344 7.726562 5.230469 7.992188 5.042969 8.335938 C 5.027344 8.351562 5.027344 8.382812 5.011719 8.398438 C 4.839844 8.730469 4.757812 9.105469 4.757812 9.480469 L 4.757812 32.132812 L 19.921875 23.375 C 20.660156 22.953125 21.585938 22.953125 22.304688 23.390625 Z M 24.511719 31.257812 C 23.261719 30.003906 21.804688 28.5625 21.285156 28.058594 L 3.710938 38.179688 C 3.320312 38.445312 2.847656 38.589844 2.378906 38.589844 C 1.0625 38.589844 0.0117188 37.523438 0.0117188 36.222656 L 0.0117188 9.480469 C 0.0117188 8.289062 0.296875 7.148438 0.875 6.113281 C 0.890625 6.066406 0.921875 6.019531 0.953125 5.988281 C 1.546875 4.890625 2.425781 4.027344 3.507812 3.417969 C 4.570312 2.808594 5.761719 2.460938 6.984375 2.460938 C 8.222656 2.460938 9.414062 2.808594 10.476562 3.417969 L 34.492188 17.28125 C 34.523438 17.296875 34.554688 17.3125 34.601562 17.34375 L 58.710938 31.273438 C 59.777344 31.882812 60.667969 32.746094 61.28125 33.824219 C 61.890625 34.890625 62.203125 36.097656 62.203125 37.335938 C 62.203125 38.570312 61.890625 39.777344 61.28125 40.84375 C 60.667969 41.910156 59.777344 42.769531 58.710938 43.382812 L 34.414062 57.417969 L 10.476562 71.21875 C 9.414062 71.832031 8.222656 72.175781 6.984375 72.175781 C 5.746094 72.175781 4.554688 71.832031 3.492188 71.21875 C 3.097656 70.984375 2.722656 70.734375 2.378906 70.4375 L 7.828125 67.289062 C 16.929688 62.039062 27.082031 54.925781 19.65625 48.503906 C 18.402344 47.40625 16.773438 45.964844 16.710938 44.242188 C 16.632812 42.082031 18.640625 40.78125 20.144531 39.496094 C 24.167969 36.097656 27.191406 33.917969 24.511719 31.257812 Z M 24.511719 31.257812 " fill-opacity="1" fill-rule="evenodd"/></g></svg>